<svg width="535" height="411" viewBox="0 0 535 411" fill="none" xmlns="http://www.w3.org/2000/svg">
<path d="M69.8949 410.023H7.07249C5.37135 410.022 3.74042 409.398 2.53748 408.289C1.33454 407.179 0.657825 405.675 0.655792 404.107V213.224C0.657825 211.655 1.33454 210.151 2.53748 209.042C3.74042 207.933 5.37135 207.309 7.07249 207.307H69.8949C71.596 207.309 73.2269 207.933 74.4299 209.042C75.6328 210.151 76.3095 211.655 76.3116 213.224V404.107C76.3095 405.675 75.6328 407.179 74.4299 408.289C73.2269 409.398 71.596 410.022 69.8949 410.023Z" fill="#6C63FF"/>
<path d="M184.459 410.023H121.637C119.936 410.022 118.305 409.398 117.102 408.289C115.899 407.179 115.222 405.675 115.22 404.107V137.477C115.222 135.908 115.899 134.404 117.102 133.295C118.305 132.186 119.936 131.562 121.637 131.56H184.459C186.16 131.562 187.791 132.186 188.994 133.295C190.197 134.404 190.874 135.908 190.876 137.477V404.107C190.874 405.675 190.197 407.179 188.994 408.289C187.791 409.398 186.16 410.022 184.459 410.023Z" fill="#6C63FF"/>
<path d="M299.024 410.023H236.201C234.5 410.022 232.869 409.398 231.666 408.289C230.463 407.179 229.787 405.675 229.785 404.107V213.224C229.787 211.655 230.463 210.151 231.666 209.042C232.869 207.933 234.5 207.309 236.201 207.307H299.024C300.725 207.309 302.356 207.933 303.559 209.042C304.762 210.151 305.438 211.655 305.44 213.224V404.107C305.438 405.675 304.762 407.179 303.559 408.289C302.356 409.398 300.725 410.022 299.024 410.023Z" fill="#6C63FF"/>
<path d="M413.588 410.023H350.766C349.103 410.056 347.495 409.48 346.292 408.422C345.089 407.363 344.391 405.908 344.349 404.375V107.309C344.391 105.776 345.089 104.321 346.292 103.262C347.495 102.203 349.103 101.627 350.766 101.66H413.588C415.251 101.627 416.859 102.203 418.062 103.262C419.265 104.321 419.963 105.776 420.005 107.309V404.375C419.963 405.908 419.265 407.363 418.062 408.422C416.859 409.48 415.251 410.056 413.588 410.023Z" fill="#6C63FF"/>
<path d="M528.153 410.023H465.33C463.629 410.022 461.998 409.398 460.795 408.289C459.592 407.179 458.916 405.675 458.914 404.107V53.7568C458.916 52.1881 459.592 50.6841 460.795 49.5749C461.998 48.4657 463.629 47.8418 465.33 47.8401H528.153C529.854 47.8418 531.485 48.4657 532.688 49.5749C533.891 50.6841 534.567 52.1881 534.569 53.7568V404.107C534.567 405.675 533.891 407.179 532.688 408.289C531.485 409.398 529.854 410.022 528.153 410.023Z" fill="#6C63FF"/>
<path d="M38.4837 183.387C45.6466 183.387 51.4532 178.032 51.4532 171.427C51.4532 164.822 45.6466 159.467 38.4837 159.467C31.3208 159.467 25.5141 164.822 25.5141 171.427C25.5141 178.032 31.3208 183.387 38.4837 183.387Z" fill="#3F3D56"/>
<path d="M153.048 105.647C160.211 105.647 166.018 100.292 166.018 93.6868C166.018 87.0815 160.211 81.7268 153.048 81.7268C145.885 81.7268 140.079 87.0815 140.079 93.6868C140.079 100.292 145.885 105.647 153.048 105.647Z" fill="#3F3D56"/>
<path d="M267.613 183.387C274.775 183.387 280.582 178.032 280.582 171.427C280.582 164.822 274.775 159.467 267.613 159.467C260.45 159.467 254.643 164.822 254.643 171.427C254.643 178.032 260.45 183.387 267.613 183.387Z" fill="#3F3D56"/>
<path d="M382.177 67.7734C389.34 67.7734 395.147 62.4188 395.147 55.8134C395.147 49.2081 389.34 43.8534 382.177 43.8534C375.014 43.8534 369.207 49.2081 369.207 55.8134C369.207 62.4188 375.014 67.7734 382.177 67.7734Z" fill="#3F3D56"/>
<path d="M496.741 23.92C503.904 23.92 509.711 18.5654 509.711 11.96C509.711 5.35468 503.904 0 496.741 0C489.579 0 483.772 5.35468 483.772 11.96C483.772 18.5654 489.579 23.92 496.741 23.92Z" fill="#3F3D56"/>
<path d="M37.7919 172.175L36.5839 170.679L153.049 90.7207L267.242 169.267L382.999 53.3704L383.206 53.292L495.548 10.5351L496.32 12.2601L384.185 54.9377L267.494 171.768L153.048 93.0476L37.7919 172.175Z" fill="#3F3D56"/>
</svg>
